<svg width="32" height="32" viewBox="0 0 32 32" fill="none" xmlns="http://www.w3.org/2000/svg">
<path d="M6.66699 13.668C7.95555 13.668 9.0008 14.7125 9.00098 16.001C9.00098 17.2896 7.95566 18.335 6.66699 18.335C5.37848 18.3348 4.33398 17.2895 4.33398 16.001C4.33416 14.7126 5.37859 13.6681 6.66699 13.668ZM15.999 13.668C17.2876 13.668 18.3328 14.7125 18.333 16.001C18.333 17.2896 17.2877 18.335 15.999 18.335C14.7105 18.3348 13.666 17.2895 13.666 16.001C13.6662 14.7126 14.7106 13.6681 15.999 13.668ZM25.333 13.668C26.6216 13.668 27.6668 14.7125 27.667 16.001C27.667 17.2896 26.6217 18.335 25.333 18.335C24.0445 18.3348 23 17.2895 23 16.001C23.0002 14.7126 24.0446 13.6681 25.333 13.668Z" fill="#9D9D9D"/>
</svg>
