<svg width="176" height="176" viewBox="0 0 176 176" fill="none" xmlns="http://www.w3.org/2000/svg">
<circle cx="88" cy="88" r="88" fill="#2A2A2A"/>
<circle cx="88" cy="59" r="29" fill="#7B7B7B"/>
<path d="M87.7773 104.045C116.874 104.045 142.861 117.385 159.997 138.294C144.094 161.087 117.678 176.001 87.7773 176.001C87.3979 176.001 87.019 175.999 86.6406 175.994C86.2621 175.989 85.8842 175.982 85.5068 175.973C80.6006 175.848 75.7941 175.323 71.1191 174.427C70.7596 174.358 70.4009 174.286 70.043 174.213C68.6107 173.92 67.1911 173.592 65.7852 173.23C65.4337 173.14 65.0831 173.048 64.7334 172.953C64.034 172.764 63.3379 172.566 62.6455 172.36C59.5293 171.433 56.4855 170.338 53.5244 169.086C51.8794 168.39 50.26 167.646 48.668 166.854C46.7573 165.905 44.8863 164.888 43.0576 163.807C42.448 163.446 41.8432 163.079 41.2432 162.704C39.7433 161.768 38.2735 160.788 36.8359 159.766C36.2608 159.357 35.6908 158.941 35.126 158.519C34.8437 158.307 34.5629 158.094 34.2832 157.88C33.4441 157.237 32.6166 156.579 31.8018 155.906C30.9868 155.234 30.1844 154.547 29.3945 153.846C28.6044 153.145 27.8268 152.43 27.0625 151.701C26.2986 150.973 25.5479 150.231 24.8105 149.476C24.3188 148.972 23.8331 148.462 23.3535 147.947C23.1137 147.69 22.8755 147.43 22.6387 147.17C21.6919 146.128 20.7696 145.064 19.873 143.978C19.6488 143.706 19.4261 143.433 19.2051 143.158C18.3212 142.061 17.4632 140.942 16.6318 139.802C16.2683 139.303 15.9109 138.8 15.5576 138.294C32.694 117.385 58.6806 104.045 87.7773 104.045Z" fill="#7B7B7B"/>
</svg>
